<?xml version="1.0" encoding="UTF-8" standalone="no"?>
<!DOCTYPE svg PUBLIC "-//W3C//DTD SVG 1.1//EN" "http://www.w3.org/Graphics/SVG/1.1/DTD/svg11.dtd">
<svg width="100%" height="100%" viewBox="0 0 4267 4267" version="1.1" xmlns="http://www.w3.org/2000/svg" xmlns:xlink="http://www.w3.org/1999/xlink" xml:space="preserve" xmlns:serif="http://www.serif.com/" style="fill-rule:evenodd;clip-rule:evenodd;stroke-linejoin:round;stroke-miterlimit:2;">
    <g transform="matrix(4.166667,0,0,4.166667,0,0)">
        <path id="p0" d="M0,0L1024,0L1024,1024L0,1024L0,0ZM488.16,555.56C463.95,576.92 442.26,602.29 426.56,630.59C416.39,648.75 409.35,668.48 405.74,688.99C405.04,693.23 405.03,697.53 405.47,701.8C410.01,696.47 413.61,690.45 418.26,685.18C427.34,674.82 437.76,665.74 449.58,658.63C453.18,656.59 456.47,654.56 460.7,654.21C445.76,680.91 435.6,710.05 436.26,741C435.76,763.56 441.74,785.9 451.04,806.32C454.58,813.82 458.14,821.86 463.08,828.5C464.61,826.5 466.05,824.46 467.22,822.22C470.52,816.07 474.15,810 478.2,804.31C487.23,791.84 497,779.78 508.02,769.02C514.88,762.23 521.52,755.12 528.91,748.92C532.76,745.46 536.17,741.69 540.56,738.87C540.55,741.66 540.41,744.44 539.96,747.19C538.06,759.47 536.64,771.81 534.85,784.09C534.25,788.81 533.42,793.43 533.51,798.21C537.49,794.59 540.8,790.39 544.64,786.64C550.75,780.77 557.04,774.96 563.87,769.93C589.42,749.34 620.06,731.42 643.67,708.67C660.9,693.48 675.76,675.32 687.56,655.64C697.94,637.36 705.59,616.82 707.9,595.85C708.96,590.01 708.19,584.13 709.51,578.32C713.78,582.28 717.09,586.96 720.34,591.74C725.86,599.62 730.4,608.06 734.64,616.69C738.34,624.31 740.87,632.32 744.06,640.15C746.91,629.52 747.49,617.96 748.33,607.01C748.61,588.03 747.34,568.8 743.45,550.2C738.86,527.13 731.01,504.64 720.17,483.76C714.95,473.92 709.11,464.49 703.26,455.03C709.7,456.05 715.97,458.53 721.77,461.46C734.08,467.99 745.96,476.29 755.56,486.45C758.12,489.1 760.55,491.75 763.69,493.76C762.5,486.38 758.99,479.1 756.19,472.18C748.85,453.69 739.23,436.07 728.75,419.18C719.46,404.82 709.03,391.09 697.61,378.35C687.58,366.5 675.46,356.2 663.27,346.63C656.3,341.19 648.55,336.51 641.2,331.61C649.85,327.86 659.77,328.34 669.04,328.26C677.12,328.07 684.17,330.53 691.99,331.88C688.71,328.73 685.24,326.08 681.37,323.7C656.32,307.94 629.91,293.65 601.06,286.3C597.28,285.31 594.13,284.42 591.89,280.94C573.36,255.73 554.87,231.47 533.05,208.87C524.52,199.15 515.12,190.15 505.62,181.38C503.23,179.16 501,176.63 498.38,174.68C496.91,173.78 496.66,176.03 496.54,176.96C495.01,191.26 492.74,205.46 490.87,219.72C488.74,233.19 486.77,247.32 482.95,260.41C479.05,273.32 471.47,284.5 461.87,293.86C451.47,303.27 439.77,310.82 428.99,319.9C421.83,325.41 415.24,331.52 408.56,337.58C389.83,355.59 373.98,376.44 361.25,399.08C358.39,404.24 355.66,409.07 354.57,414.96C353.11,421.63 353.18,428.22 353.47,435.01C353.69,439.7 355.08,444.28 355.35,448.94C354.29,451.92 352.07,454.6 350.24,457.15C339.54,471.8 327.93,486.25 314.94,498.94C306.68,507.35 297.8,515.17 288.9,522.9C284.36,526.95 278.78,531.22 275.65,536.5C273.85,539.28 274,542.7 275.56,545.55C277.83,549.92 281.34,553.73 284.54,557.45C292.74,566.1 301.68,574.66 311.51,581.44C326.52,592.26 343.09,601.34 360.78,606.93C364.73,608.13 369.34,609.37 373.43,608.23C377.9,606.58 381.93,603.37 385.93,600.81C399.27,592.2 412.38,582.91 426.08,574.9C442.74,564.83 460.47,557.49 479.97,555.41C482.71,555.2 485.43,555.32 488.16,555.56ZM382.9,345.19C387.83,339.34 392.56,333.2 396.86,326.88C398.07,325.36 397.05,323.83 396.66,322.19C392.81,311.09 389.88,299.77 387.04,288.39C385.96,284.13 385.23,279.87 385.18,275.47C390.46,279.05 394.19,283.9 398.8,288.21C404.02,293.29 409.08,298.63 414.49,303.53C415.83,304.57 417.53,306.38 419.36,305.35C423.1,303.28 426.24,300.11 429.75,297.66C436.75,292.7 443.19,287.74 450.52,283.48C452.69,282.21 454.7,280.73 456.73,279.25C440.73,276.81 424.03,272.99 409.41,265.87C396.26,259.67 385.02,251.23 373.46,242.54C370.25,240.2 367.18,237.09 363.55,235.45C363.17,238.83 363.98,242.58 364.34,245.96C368.28,279.48 373.71,312.67 382.9,345.19Z" style="fill:none;fill-rule:nonzero;"/>
        <path id="p1" d="M498.38,174.68C501,176.63 503.23,179.16 505.62,181.38C515.12,190.15 524.52,199.15 533.05,208.87C554.87,231.47 573.36,255.73 591.89,280.94C594.13,284.42 597.28,285.31 601.06,286.3C629.91,293.65 656.32,307.94 681.37,323.7C685.24,326.08 688.71,328.73 691.99,331.88C684.17,330.53 677.12,328.07 669.04,328.26C659.77,328.34 649.85,327.86 641.2,331.61C648.55,336.51 656.3,341.19 663.27,346.63C675.46,356.2 687.58,366.5 697.61,378.35C709.03,391.09 719.46,404.82 728.75,419.18C739.23,436.07 748.85,453.69 756.19,472.18C758.99,479.1 762.5,486.38 763.69,493.76C760.55,491.75 758.12,489.1 755.56,486.45C745.96,476.29 734.08,467.99 721.77,461.46C715.97,458.53 709.7,456.05 703.26,455.03C709.11,464.49 714.95,473.92 720.17,483.76C731.01,504.64 738.86,527.13 743.45,550.2C747.34,568.8 748.61,588.03 748.33,607.01C747.49,617.96 746.91,629.52 744.06,640.15C740.87,632.32 738.34,624.31 734.64,616.69C730.4,608.06 725.86,599.62 720.34,591.74C717.09,586.96 713.78,582.28 709.51,578.32C708.19,584.13 708.96,590.01 707.9,595.85C705.59,616.82 697.94,637.36 687.56,655.64C675.76,675.32 660.9,693.48 643.67,708.67C620.06,731.42 589.42,749.34 563.87,769.93C557.04,774.96 550.75,780.77 544.64,786.64C540.8,790.39 537.49,794.59 533.51,798.21C533.42,793.43 534.25,788.81 534.85,784.09C536.64,771.81 538.06,759.47 539.96,747.19C540.41,744.44 540.55,741.66 540.56,738.87C536.17,741.69 532.76,745.46 528.91,748.92C521.52,755.12 514.88,762.23 508.02,769.02C497,779.78 487.23,791.84 478.2,804.31C474.15,810 470.52,816.07 467.22,822.22C466.05,824.46 464.61,826.5 463.08,828.5C458.14,821.86 454.58,813.82 451.04,806.32C441.74,785.9 435.76,763.56 436.26,741C435.6,710.05 445.76,680.91 460.7,654.21C456.47,654.56 453.18,656.59 449.58,658.63C437.76,665.74 427.34,674.82 418.26,685.18C413.61,690.45 410.01,696.47 405.47,701.8C405.03,697.53 405.04,693.23 405.74,688.99C409.35,668.48 416.39,648.75 426.56,630.59C442.26,602.29 463.95,576.92 488.16,555.56C485.43,555.32 482.71,555.2 479.97,555.41C460.47,557.49 442.74,564.83 426.08,574.9C412.38,582.91 399.27,592.2 385.93,600.81C381.93,603.37 377.9,606.58 373.43,608.23C369.34,609.37 364.73,608.13 360.78,606.93C343.09,601.34 326.52,592.26 311.51,581.44C301.68,574.66 292.74,566.1 284.54,557.45C281.34,553.73 277.83,549.92 275.56,545.55C274,542.7 273.85,539.28 275.65,536.5C278.78,531.22 284.36,526.95 288.9,522.9C297.8,515.17 306.68,507.35 314.94,498.94C327.93,486.25 339.54,471.8 350.24,457.15C352.07,454.6 354.29,451.92 355.35,448.94C355.08,444.28 353.69,439.7 353.47,435.01C353.18,428.22 353.11,421.63 354.57,414.96C355.66,409.07 358.39,404.24 361.25,399.08C373.98,376.44 389.83,355.59 408.56,337.58C415.24,331.52 421.83,325.41 428.99,319.9C439.77,310.82 451.47,303.27 461.87,293.86C471.47,284.5 479.05,273.32 482.95,260.41C486.77,247.32 488.74,233.19 490.87,219.72C492.74,205.46 495.01,191.26 496.54,176.96C496.66,176.03 496.91,173.78 498.38,174.68ZM399.51,400.16C406.16,394.95 411.83,388.69 418.61,383.61C434.46,371.33 453.69,362.1 473.67,359.35C478.06,358.51 482.46,358.46 486.91,358.64C482.3,364.6 476.8,369.58 472.61,375.85C482.48,376.12 492.23,374.04 502,375.08C523.12,375.52 545.15,380.58 563.14,391.99C573.07,398.03 581.69,406.08 587.87,415.96C581.57,413.98 575.71,411.02 569.35,409.3C561.12,407.01 552.5,405.74 544.04,404.69C534.4,403.89 524.66,404.19 515,404.17C495.68,404.18 475.62,408.34 456.8,412.56C450.19,414.17 443.1,415.63 437.19,419.06C427.91,424.38 418.62,429.62 409.84,435.77C398.94,442.56 391.4,453.71 383.83,463.85C378.55,470.9 373.17,477.88 367.91,484.94C353.85,502.83 338.55,519.54 323.06,536.18C322.27,537.07 322.15,537.93 323.03,538.82C325.62,541.85 330.09,544.49 329.75,548.99C330.21,553.33 327.56,555.97 324.76,558.8C321.18,562.18 316.64,563.34 312.1,565.77C317.77,569.26 323.08,572.69 329.47,574.74C337.01,577.16 345.04,579.39 352.99,579.67C355.67,580.05 358.02,577.49 359.92,575.91C365.66,570.25 372.05,565.55 377.16,559.24C385.48,550.3 393.02,541.29 402.31,533.39C415.33,521.44 430.19,511.91 447.02,506.3C459.35,502.4 472,499.88 485,500.35C492.58,499.97 499.84,501.98 507.4,501.69C506.09,498.23 504.32,494.99 502.34,491.88C496.8,483.09 491.54,474.15 486.18,465.26C504.41,466.89 522.39,472.34 538.79,480.39C544.41,483.12 548.94,487.05 554.82,489.14C552.9,482.32 549.07,476.56 545.2,470.67C533.5,453.84 515.84,442.21 496.25,436.59C492.42,435.56 488.69,434.3 484.97,432.95C492.36,432.59 499.58,431.24 507,431.44C523.39,431.24 539.69,433.51 555.1,439.22C579.21,447.81 600.82,464.24 617.95,483.04C628.3,494.94 638.05,508.07 643.96,522.79C636.56,517.35 629.46,511.89 621.12,507.9C614.78,504.91 607.98,502 601.04,500.81C601.91,506.49 604.26,511.48 605.72,517C610.55,534.98 611.65,553.66 609.67,572.13C608.3,588.63 604.25,604.95 598.05,620.3C596.05,625.71 593.52,630.83 590.71,635.87C589.6,627.25 589.02,618.51 587.47,609.96C585.47,600.17 582.68,590.44 578.68,581.27C575.18,573.13 569.99,565.45 564.75,558.31C560.39,553.02 555.48,547.45 549.61,543.85C550.56,549.94 551.77,555.78 551.66,561.97C551.6,570.85 552.16,579.1 550.59,587.83C547.82,608.05 540.46,629.68 526.37,644.88C525.53,641.37 525.52,637.58 525.6,633.99C525.72,625.66 525.53,617.33 525.67,609C525.68,603.84 525.77,598.63 525.26,593.49C521.58,598.99 519.33,605.06 516.32,611.19C507.1,630.17 496.62,648.67 487.7,667.8C476.09,692.92 466.54,717.98 463.6,745.73C463.14,754.99 463.23,764.3 463.58,773.56C463.7,777.77 464.52,781.87 465.79,785.88C471.64,775.89 476.74,765.48 482.74,755.57C495.76,734.21 509.87,713.05 525.57,693.55C532.93,684.59 540.69,676.07 548.54,667.53C555.17,660.88 562.3,654.39 569.7,648.6C567.64,663.57 565,678.5 562.68,693.44C561.88,699.86 560.25,705.93 560.35,712.45C568.62,707.95 575.72,700.97 582.62,694.63C597.83,681.09 612.18,665.33 622.44,647.66C629.53,635.23 635.41,621.84 637.92,607.68C640.63,595.33 639.83,582.43 639.46,569.81C649.31,578.7 656.09,591.78 661.87,603.56C662.62,603.52 663.37,603.48 664.12,603.45C667.38,583.07 669.19,562.6 668.11,541.96C667.01,527.21 665.53,511.83 661.8,497.48C660.18,490.91 658.43,484.39 656.19,478C645.92,448.99 630.41,421.97 610.52,398.49C606.42,393.65 601.84,389.27 597.66,384.52C602.29,384.26 606.73,384.93 611.2,386.05C624.93,389.07 638.2,394.7 650.37,401.66C652.13,402.57 653.97,403.48 655.9,403.94C655.68,401.98 654.72,400.05 653.78,398.33C646.74,386.34 637.07,375.54 627.07,365.93C607.35,347.24 583.64,333.68 558.03,324.79C551.42,322.54 544.64,321.05 537.96,319.04C548.33,315.95 559.03,314.7 569.5,312.06C566.88,304.97 562.84,298.24 559.36,291.53C556.13,285.22 552.63,279.06 549.22,272.84C541.95,259.98 534.12,245.9 523.56,235.44C520.92,232.8 518.25,230.19 515.52,227.64C512.85,233.1 512,238.8 510.86,244.7C507.56,263.69 506.25,282.74 506.38,302.01C506.22,304.72 506.81,308.07 505.59,310.56C502.88,312.6 499.43,313.76 496.39,315.26C480.87,322.83 465.84,330.52 451.82,340.7C434.37,352.92 418.1,367.34 406.32,385.24C403.85,389.06 401.23,392.98 399.55,397.21C399.59,398.19 399.57,399.18 399.51,400.16Z" style="fill:white;fill-rule:nonzero;"/>
        <path id="p2" d="M515.52,227.64C518.25,230.19 520.92,232.8 523.56,235.44C534.12,245.9 541.95,259.98 549.22,272.84C552.63,279.06 556.13,285.22 559.36,291.53C562.84,298.24 566.88,304.97 569.5,312.06C559.03,314.7 548.33,315.95 537.96,319.04C544.64,321.05 551.42,322.54 558.03,324.79C583.64,333.68 607.35,347.24 627.07,365.93C637.07,375.54 646.74,386.34 653.78,398.33C654.72,400.05 655.68,401.98 655.9,403.94C653.97,403.48 652.13,402.57 650.37,401.66C638.2,394.7 624.93,389.07 611.2,386.05C606.73,384.93 602.29,384.26 597.66,384.52C601.84,389.27 606.42,393.65 610.52,398.49C630.41,421.97 645.92,448.99 656.19,478C658.43,484.39 660.18,490.91 661.8,497.48C665.53,511.83 667.01,527.21 668.11,541.96C669.19,562.6 667.38,583.07 664.12,603.45C663.37,603.48 662.62,603.52 661.87,603.56C656.09,591.78 649.31,578.7 639.46,569.81C639.83,582.43 640.63,595.33 637.92,607.68C635.41,621.84 629.53,635.23 622.44,647.66C612.18,665.33 597.83,681.09 582.62,694.63C575.72,700.97 568.62,707.95 560.35,712.45C560.25,705.93 561.88,699.86 562.68,693.44C565,678.5 567.64,663.57 569.7,648.6C562.3,654.39 555.17,660.88 548.54,667.53C540.69,676.07 532.93,684.59 525.57,693.55C509.87,713.05 495.76,734.21 482.74,755.57C476.74,765.48 471.64,775.89 465.79,785.88C464.52,781.87 463.7,777.77 463.58,773.56C463.23,764.3 463.14,754.99 463.6,745.73C466.54,717.98 476.09,692.92 487.7,667.8C496.62,648.67 507.1,630.17 516.32,611.19C519.33,605.06 521.58,598.99 525.26,593.49C525.77,598.63 525.68,603.84 525.67,609C525.53,617.33 525.72,625.66 525.6,633.99C525.52,637.58 525.53,641.37 526.37,644.88C540.46,629.68 547.82,608.05 550.59,587.83C552.16,579.1 551.6,570.85 551.66,561.97C551.77,555.78 550.56,549.94 549.61,543.85C555.48,547.45 560.39,553.02 564.75,558.31C569.99,565.45 575.18,573.13 578.68,581.27C582.68,590.44 585.47,600.17 587.47,609.96C589.02,618.51 589.6,627.25 590.71,635.87C593.52,630.83 596.05,625.71 598.05,620.3C604.25,604.95 608.3,588.63 609.67,572.13C611.65,553.66 610.55,534.98 605.72,517C604.26,511.48 601.91,506.49 601.04,500.81C607.98,502 614.78,504.91 621.12,507.9C629.46,511.89 636.56,517.35 643.96,522.79C638.05,508.07 628.3,494.94 617.95,483.04C600.82,464.24 579.21,447.81 555.1,439.22C539.69,433.51 523.39,431.24 507,431.44C499.58,431.24 492.36,432.59 484.97,432.95C488.69,434.3 492.42,435.56 496.25,436.59C515.84,442.21 533.5,453.84 545.2,470.67C549.07,476.56 552.9,482.32 554.82,489.14C548.94,487.05 544.41,483.12 538.79,480.39C522.39,472.34 504.41,466.89 486.18,465.26C491.54,474.15 496.8,483.09 502.34,491.88C504.32,494.99 506.09,498.23 507.4,501.69C499.84,501.98 492.58,499.97 485,500.35C472,499.88 459.35,502.4 447.02,506.3C430.19,511.91 415.33,521.44 402.31,533.39C393.02,541.29 385.48,550.3 377.16,559.24C372.05,565.55 365.66,570.25 359.92,575.91C358.02,577.49 355.67,580.05 352.99,579.67C345.04,579.39 337.01,577.16 329.47,574.74C323.08,572.69 317.77,569.26 312.1,565.77C316.64,563.34 321.18,562.18 324.76,558.8C327.56,555.97 330.21,553.33 329.75,548.99C330.09,544.49 325.62,541.85 323.03,538.82C322.15,537.93 322.27,537.07 323.06,536.18C338.55,519.54 353.85,502.83 367.91,484.94C373.17,477.88 378.55,470.9 383.83,463.85C391.4,453.71 398.94,442.56 409.84,435.77C418.62,429.62 427.91,424.38 437.19,419.06C443.1,415.63 450.19,414.17 456.8,412.56C475.62,408.34 495.68,404.18 515,404.17C524.66,404.19 534.4,403.89 544.04,404.69C552.5,405.74 561.12,407.01 569.35,409.3C575.71,411.02 581.57,413.98 587.87,415.96C581.69,406.08 573.07,398.03 563.14,391.99C545.15,380.58 523.12,375.52 502,375.08C492.23,374.04 482.48,376.12 472.61,375.85C476.8,369.58 482.3,364.6 486.91,358.64C482.46,358.46 478.06,358.51 473.67,359.35C453.69,362.1 434.46,371.33 418.61,383.61C411.83,388.69 406.16,394.95 399.51,400.16C399.57,399.18 399.59,398.19 399.55,397.21C401.23,392.98 403.85,389.06 406.32,385.24C418.1,367.34 434.37,352.92 451.82,340.7C465.84,330.52 480.87,322.83 496.39,315.26C499.43,313.76 502.88,312.6 505.59,310.56C506.81,308.07 506.22,304.72 506.38,302.01C506.25,282.74 507.56,263.69 510.86,244.7C512,238.8 512.85,233.1 515.52,227.64ZM384.8,487.04C391.54,481.79 396.7,475.96 404.79,472.49C411.58,469.44 419.75,470 425.45,465.5C430.22,461.62 434.27,456.71 437.38,451.41C441.31,444.84 445.09,438.02 447.8,430.85C438.61,434.42 429.9,440.26 421.74,445.75C413.75,451.24 406.27,457.53 399.28,464.24C392.55,470.73 386.85,477.66 384.8,487.04Z" style="fill:none;fill-rule:nonzero;"/>
        <path id="p3" d="M363.55,235.45C367.18,237.09 370.25,240.2 373.46,242.54C385.02,251.23 396.26,259.67 409.41,265.87C424.03,272.99 440.73,276.81 456.73,279.25C454.7,280.73 452.69,282.21 450.52,283.48C443.19,287.74 436.75,292.7 429.75,297.66C426.24,300.11 423.1,303.28 419.36,305.35C417.53,306.38 415.83,304.57 414.49,303.53C409.08,298.63 404.02,293.29 398.8,288.21C394.19,283.9 390.46,279.05 385.18,275.47C385.23,279.87 385.96,284.13 387.04,288.39C389.88,299.77 392.81,311.09 396.66,322.19C397.05,323.83 398.07,325.36 396.86,326.88C392.56,333.2 387.83,339.34 382.9,345.19C373.71,312.67 368.28,279.48 364.34,245.96C363.98,242.58 363.17,238.83 363.55,235.45Z" style="fill:white;fill-rule:nonzero;"/>
        <path id="p4" d="M447.8,430.85C445.09,438.02 441.31,444.84 437.38,451.41C434.27,456.71 430.22,461.62 425.45,465.5C419.75,470 411.58,469.44 404.79,472.49C396.7,475.96 391.54,481.79 384.8,487.04C386.85,477.66 392.55,470.73 399.28,464.24C406.27,457.53 413.75,451.24 421.74,445.75C429.9,440.26 438.61,434.42 447.8,430.85Z" style="fill:white;fill-rule:nonzero;"/>
    </g>
</svg>
